<svg width="56" height="56" viewBox="0 0 56 56" fill="none" xmlns="http://www.w3.org/2000/svg">
<path opacity="0.4" d="M21 4.66667C14.8867 4.66667 9.91666 9.63667 9.91666 15.75C9.91666 21.7467 14.6067 26.6 20.72 26.81C20.9067 26.7867 21.0933 26.7867 21.2333 26.81C21.28 26.81 21.3033 26.81 21.35 26.81C21.3733 26.81 21.3733 26.81 21.3967 26.81C27.37 26.6 32.06 21.7467 32.0833 15.75C32.0833 9.63667 27.1133 4.66667 21 4.66667Z" fill="white"/>
<path d="M32.8529 33.0164C26.3429 28.6764 15.7262 28.6764 9.16957 33.0164C6.20624 34.9997 4.57291 37.6831 4.57291 40.5531C4.57291 43.4231 6.20624 46.0831 9.14624 48.0431C12.4129 50.2364 16.7062 51.3331 20.9996 51.3331C25.2929 51.3331 29.5862 50.2364 32.8529 48.0431C35.7929 46.0597 37.4262 43.3997 37.4262 40.5064C37.4029 37.6364 35.7929 34.9764 32.8529 33.0164Z" fill="white"/>
<path opacity="0.4" d="M46.643 17.1269C47.0163 21.6536 43.7963 25.6202 39.3397 26.1569C39.3163 26.1569 39.3163 26.1569 39.293 26.1569H39.223C39.083 26.1569 38.943 26.1569 38.8263 26.2036C36.563 26.3202 34.4863 25.5969 32.923 24.2669C35.3263 22.1202 36.703 18.9002 36.423 15.4002C36.2597 13.5102 35.6063 11.7836 34.6263 10.3136C35.513 9.87023 36.5397 9.59023 37.5897 9.4969C42.163 9.10023 46.2463 12.5069 46.643 17.1269Z" fill="white"/>
<path d="M51.3106 38.7098C51.1239 40.9731 49.6772 42.9331 47.2506 44.2631C44.9172 45.5465 41.9772 46.1531 39.0606 46.0831C40.7406 44.5665 41.7206 42.6765 41.9072 40.6698C42.1406 37.7765 40.7639 34.9998 38.0106 32.7831C36.4472 31.5465 34.6272 30.5665 32.6439 29.8431C37.8006 28.3498 44.2872 29.3531 48.2772 32.5731C50.4239 34.2998 51.5206 36.4698 51.3106 38.7098Z" fill="white"/>
</svg>
