<svg width="64" height="64" viewBox="0 0 64 64" fill="none" xmlns="http://www.w3.org/2000/svg">
<path opacity="0.4" d="M56 18.6667V45.3334C56 53.3334 52 58.6667 42.6667 58.6667H21.3333C12 58.6667 8 53.3334 8 45.3334V18.6667C8 10.6667 12 5.33337 21.3333 5.33337H42.6667C52 5.33337 56 10.6667 56 18.6667Z" fill="#84CCA7"/>
<path d="M41.3333 5.33337V26.2933C41.3333 27.4667 39.9466 28.0534 39.0932 27.2801L32.9067 21.5734C32.4 21.0934 31.5999 21.0934 31.0932 21.5734L24.9067 27.2801C24.0534 28.0801 22.6666 27.4667 22.6666 26.2933V5.33337H41.3333Z" fill="#84CCA7"/>
<path d="M46.6667 39.3334H35.3334C34.24 39.3334 33.3334 38.4267 33.3334 37.3334C33.3334 36.24 34.24 35.3334 35.3334 35.3334H46.6667C47.76 35.3334 48.6667 36.24 48.6667 37.3334C48.6667 38.4267 47.76 39.3334 46.6667 39.3334Z" fill="#84CCA7"/>
<path d="M46.6667 50H24C22.9067 50 22 49.0933 22 48C22 46.9067 22.9067 46 24 46H46.6667C47.76 46 48.6667 46.9067 48.6667 48C48.6667 49.0933 47.76 50 46.6667 50Z" fill="#84CCA7"/>
</svg>
