<svg width="64" height="64" viewBox="0 0 64 64" fill="none" xmlns="http://www.w3.org/2000/svg">
<path opacity="0.4" d="M43.3066 9.73328H20.6933C14.1066 9.73328 8.77332 15.0933 8.77332 21.6533V46.7466C8.77332 53.3066 14.1333 58.6666 20.6933 58.6666H43.28C49.8666 58.6666 55.2 53.3066 55.2 46.7466V21.6533C55.2266 15.0666 49.8666 9.73328 43.3066 9.73328Z" fill="#84CCA7"/>
<path d="M38.2667 5.33337H25.7334C22.96 5.33337 20.6934 7.57337 20.6934 10.3467V12.8534C20.6934 15.6267 22.9334 17.8667 25.7067 17.8667H38.2667C41.04 17.8667 43.28 15.6267 43.28 12.8534V10.3467C43.3067 7.57337 41.04 5.33337 38.2667 5.33337Z" fill="#84CCA7"/>
<path d="M28.8267 45.2C28.32 45.2 27.8134 45.0134 27.4134 44.6134L23.4134 40.6134C22.64 39.84 22.64 38.56 23.4134 37.7867C24.1867 37.0134 25.4667 37.0134 26.24 37.7867L28.8267 40.3734L38.08 31.12C38.8534 30.3467 40.1334 30.3467 40.9067 31.12C41.68 31.8934 41.68 33.1734 40.9067 33.9467L30.24 44.6134C29.8667 45.0134 29.3334 45.2 28.8267 45.2Z" fill="#84CCA7"/>
</svg>
