<svg width="109" height="1365" viewBox="0 0 109 1365" fill="none" xmlns="http://www.w3.org/2000/svg">
<g filter="url(#filter0_d_24_485)">
<circle cx="54.5" cy="51" r="47.5" fill="url(#paint0_linear_24_485)" shape-rendering="crispEdges"/>
<circle cx="54.5" cy="51" r="46" stroke="white" stroke-width="3" shape-rendering="crispEdges"/>
</g>
<path d="M52.624 66.5V41.016L47.334 42.258V37.75L55.108 34.3H58.742V66.5H52.624Z" fill="white"/>
<g filter="url(#filter1_d_24_485)">
<circle cx="54.5" cy="302" r="47.5" fill="url(#paint1_linear_24_485)" shape-rendering="crispEdges"/>
<circle cx="54.5" cy="302" r="46" stroke="white" stroke-width="3" shape-rendering="crispEdges"/>
</g>
<path d="M43.346 317.5V313.222C45.3087 311.597 47.21 309.987 49.05 308.392C50.9207 306.797 52.5767 305.218 54.018 303.654C55.49 302.09 56.6553 300.572 57.514 299.1C58.4033 297.597 58.848 296.141 58.848 294.73C58.848 293.411 58.48 292.246 57.744 291.234C57.0387 290.222 55.858 289.716 54.202 289.716C52.5153 289.716 51.2427 290.268 50.384 291.372C49.5253 292.476 49.096 293.81 49.096 295.374H43.392C43.4533 293.013 43.9747 291.05 44.956 289.486C45.9373 287.891 47.2407 286.711 48.866 285.944C50.4913 285.147 52.316 284.748 54.34 284.748C57.6213 284.748 60.1667 285.653 61.976 287.462C63.816 289.241 64.736 291.556 64.736 294.408C64.736 296.187 64.322 297.919 63.494 299.606C62.6967 301.293 61.6387 302.918 60.32 304.482C59.0013 306.046 57.5753 307.518 56.042 308.898C54.5087 310.247 53.0213 311.505 51.58 312.67H65.518V317.5H43.346Z" fill="white"/>
<g filter="url(#filter2_d_24_485)">
<circle cx="54.5" cy="553" r="47.5" fill="url(#paint2_linear_24_485)" shape-rendering="crispEdges"/>
<circle cx="54.5" cy="553" r="46" stroke="white" stroke-width="3" shape-rendering="crispEdges"/>
</g>
<path d="M54.662 569.052C52.546 569.052 50.6293 568.684 48.912 567.948C47.1947 567.181 45.8147 566.016 44.772 564.452C43.7293 562.888 43.1773 560.925 43.116 558.564H48.912C48.9427 560.128 49.4487 561.447 50.43 562.52C51.442 563.563 52.8527 564.084 54.662 564.084C56.3793 564.084 57.698 563.609 58.618 562.658C59.538 561.707 59.998 560.511 59.998 559.07C59.998 557.383 59.3847 556.111 58.158 555.252C56.962 554.363 55.4133 553.918 53.512 553.918H51.12V549.088H53.558C55.122 549.088 56.4253 548.72 57.468 547.984C58.5107 547.248 59.032 546.159 59.032 544.718C59.032 543.522 58.6333 542.571 57.836 541.866C57.0693 541.13 55.996 540.762 54.616 540.762C53.1133 540.762 51.9327 541.207 51.074 542.096C50.246 542.985 49.786 544.074 49.694 545.362H43.944C44.0667 542.387 45.094 540.041 47.026 538.324C48.9887 536.607 51.5187 535.748 54.616 535.748C56.824 535.748 58.6793 536.147 60.182 536.944C61.7153 537.711 62.8653 538.738 63.632 540.026C64.4293 541.314 64.828 542.74 64.828 544.304C64.828 546.113 64.322 547.647 63.31 548.904C62.3287 550.131 61.102 550.959 59.63 551.388C61.4393 551.756 62.9113 552.645 64.046 554.056C65.1807 555.436 65.748 557.184 65.748 559.3C65.748 561.079 65.3187 562.704 64.46 564.176C63.6013 565.648 62.344 566.829 60.688 567.718C59.0627 568.607 57.054 569.052 54.662 569.052Z" fill="white"/>
<g filter="url(#filter3_d_24_485)">
<circle cx="54.5" cy="804" r="47.5" fill="url(#paint3_linear_24_485)" shape-rendering="crispEdges"/>
<circle cx="54.5" cy="804" r="46" stroke="white" stroke-width="3" shape-rendering="crispEdges"/>
</g>
<path d="M58.848 819.5V813.52H42.978V808.828L58.066 787.3H64.736V808.414H68.968V813.52H64.736V819.5H58.848ZM49.28 808.414H59.216V793.786L49.28 808.414Z" fill="white"/>
<g filter="url(#filter4_d_24_485)">
<circle cx="54.5" cy="1055" r="47.5" fill="url(#paint4_linear_24_485)" shape-rendering="crispEdges"/>
<circle cx="54.5" cy="1055" r="46" stroke="white" stroke-width="3" shape-rendering="crispEdges"/>
</g>
<path d="M55.674 1071.05C53.3127 1071.05 51.2733 1070.64 49.556 1069.81C47.8693 1068.98 46.5353 1067.85 45.554 1066.41C44.6033 1064.93 44.0513 1063.28 43.898 1061.44H49.648C49.924 1062.76 50.5987 1063.86 51.672 1064.75C52.7453 1065.61 54.0793 1066.04 55.674 1066.04C57.3913 1066.04 58.7867 1065.41 59.86 1064.15C60.964 1062.89 61.516 1061.33 61.516 1059.46C61.516 1057.53 60.964 1055.99 59.86 1054.86C58.7867 1053.73 57.422 1053.16 55.766 1053.16C54.386 1053.16 53.19 1053.5 52.178 1054.17C51.166 1054.84 50.4453 1055.69 50.016 1056.7H44.358L47.118 1038.3H64.966V1043.45H51.534L50.062 1050.9C50.7367 1050.17 51.6567 1049.57 52.822 1049.11C53.9873 1048.62 55.2907 1048.37 56.732 1048.37C59.032 1048.37 60.9487 1048.9 62.482 1049.94C64.0153 1050.95 65.1807 1052.3 65.978 1053.99C66.7753 1055.64 67.174 1057.45 67.174 1059.41C67.174 1061.65 66.6833 1063.65 65.702 1065.39C64.7513 1067.14 63.402 1068.52 61.654 1069.53C59.9367 1070.55 57.9433 1071.05 55.674 1071.05Z" fill="white"/>
<g filter="url(#filter5_d_24_485)">
<circle cx="54.5" cy="1306" r="47.5" fill="url(#paint5_linear_24_485)" shape-rendering="crispEdges"/>
<circle cx="54.5" cy="1306" r="46" stroke="white" stroke-width="3" shape-rendering="crispEdges"/>
</g>
<path d="M56.226 1322.05C53.8033 1322.05 51.764 1321.61 50.108 1320.72C48.452 1319.83 47.118 1318.63 46.106 1317.13C45.094 1315.63 44.358 1313.96 43.898 1312.12C43.4687 1310.28 43.254 1308.39 43.254 1306.46C43.254 1302.87 43.76 1299.76 44.772 1297.12C45.784 1294.45 47.2407 1292.4 49.142 1290.96C51.0433 1289.48 53.3433 1288.75 56.042 1288.75C58.25 1288.75 60.1207 1289.19 61.654 1290.08C63.218 1290.94 64.4293 1292.08 65.288 1293.49C66.1467 1294.9 66.6527 1296.41 66.806 1298.04H61.332C61.056 1296.63 60.458 1295.54 59.538 1294.77C58.618 1294.01 57.4373 1293.62 55.996 1293.62C53.9413 1293.62 52.2853 1294.57 51.028 1296.48C49.7707 1298.35 49.096 1301.21 49.004 1305.08C49.74 1303.82 50.844 1302.78 52.316 1301.95C53.788 1301.12 55.4287 1300.71 57.238 1300.71C59.0167 1300.71 60.688 1301.14 62.252 1302C63.816 1302.85 65.0733 1304.07 66.024 1305.63C67.0053 1307.19 67.496 1309.03 67.496 1311.15C67.496 1313.08 67.0207 1314.88 66.07 1316.53C65.15 1318.19 63.8313 1319.52 62.114 1320.53C60.4273 1321.55 58.4647 1322.05 56.226 1322.05ZM55.904 1316.99C57.6213 1316.99 59.032 1316.47 60.136 1315.43C61.2707 1314.35 61.838 1313.01 61.838 1311.38C61.838 1309.66 61.2707 1308.28 60.136 1307.24C59.0013 1306.2 57.56 1305.68 55.812 1305.68C54.6773 1305.68 53.65 1305.94 52.73 1306.46C51.8407 1306.95 51.1353 1307.62 50.614 1308.48C50.0927 1309.31 49.832 1310.25 49.832 1311.29C49.832 1312.94 50.3993 1314.31 51.534 1315.38C52.6993 1316.46 54.156 1316.99 55.904 1316.99Z" fill="white"/>
<defs>
<filter id="filter0_d_24_485" x="0" y="0.5" width="109" height="109" filterUnits="userSpaceOnUse" color-interpolation-filters="sRGB">
<feFlood flood-opacity="0" result="BackgroundImageFix"/>
<feColorMatrix in="SourceAlpha" type="matrix" values="0 0 0 0 0 0 0 0 0 0 0 0 0 0 0 0 0 0 127 0" result="hardAlpha"/>
<feOffset dy="4"/>
<feGaussianBlur stdDeviation="3.5"/>
<feComposite in2="hardAlpha" operator="out"/>
<feColorMatrix type="matrix" values="0 0 0 0 0.00392157 0 0 0 0 0.180392 0 0 0 0 0.0901961 0 0 0 0.25 0"/>
<feBlend mode="normal" in2="BackgroundImageFix" result="effect1_dropShadow_24_485"/>
<feBlend mode="normal" in="SourceGraphic" in2="effect1_dropShadow_24_485" result="shape"/>
</filter>
<filter id="filter1_d_24_485" x="0" y="251.5" width="109" height="109" filterUnits="userSpaceOnUse" color-interpolation-filters="sRGB">
<feFlood flood-opacity="0" result="BackgroundImageFix"/>
<feColorMatrix in="SourceAlpha" type="matrix" values="0 0 0 0 0 0 0 0 0 0 0 0 0 0 0 0 0 0 127 0" result="hardAlpha"/>
<feOffset dy="4"/>
<feGaussianBlur stdDeviation="3.5"/>
<feComposite in2="hardAlpha" operator="out"/>
<feColorMatrix type="matrix" values="0 0 0 0 0.00392157 0 0 0 0 0.180392 0 0 0 0 0.0901961 0 0 0 0.25 0"/>
<feBlend mode="normal" in2="BackgroundImageFix" result="effect1_dropShadow_24_485"/>
<feBlend mode="normal" in="SourceGraphic" in2="effect1_dropShadow_24_485" result="shape"/>
</filter>
<filter id="filter2_d_24_485" x="0" y="502.5" width="109" height="109" filterUnits="userSpaceOnUse" color-interpolation-filters="sRGB">
<feFlood flood-opacity="0" result="BackgroundImageFix"/>
<feColorMatrix in="SourceAlpha" type="matrix" values="0 0 0 0 0 0 0 0 0 0 0 0 0 0 0 0 0 0 127 0" result="hardAlpha"/>
<feOffset dy="4"/>
<feGaussianBlur stdDeviation="3.5"/>
<feComposite in2="hardAlpha" operator="out"/>
<feColorMatrix type="matrix" values="0 0 0 0 0.00392157 0 0 0 0 0.180392 0 0 0 0 0.0901961 0 0 0 0.25 0"/>
<feBlend mode="normal" in2="BackgroundImageFix" result="effect1_dropShadow_24_485"/>
<feBlend mode="normal" in="SourceGraphic" in2="effect1_dropShadow_24_485" result="shape"/>
</filter>
<filter id="filter3_d_24_485" x="0" y="753.5" width="109" height="109" filterUnits="userSpaceOnUse" color-interpolation-filters="sRGB">
<feFlood flood-opacity="0" result="BackgroundImageFix"/>
<feColorMatrix in="SourceAlpha" type="matrix" values="0 0 0 0 0 0 0 0 0 0 0 0 0 0 0 0 0 0 127 0" result="hardAlpha"/>
<feOffset dy="4"/>
<feGaussianBlur stdDeviation="3.5"/>
<feComposite in2="hardAlpha" operator="out"/>
<feColorMatrix type="matrix" values="0 0 0 0 0.00392157 0 0 0 0 0.180392 0 0 0 0 0.0901961 0 0 0 0.25 0"/>
<feBlend mode="normal" in2="BackgroundImageFix" result="effect1_dropShadow_24_485"/>
<feBlend mode="normal" in="SourceGraphic" in2="effect1_dropShadow_24_485" result="shape"/>
</filter>
<filter id="filter4_d_24_485" x="0" y="1004.5" width="109" height="109" filterUnits="userSpaceOnUse" color-interpolation-filters="sRGB">
<feFlood flood-opacity="0" result="BackgroundImageFix"/>
<feColorMatrix in="SourceAlpha" type="matrix" values="0 0 0 0 0 0 0 0 0 0 0 0 0 0 0 0 0 0 127 0" result="hardAlpha"/>
<feOffset dy="4"/>
<feGaussianBlur stdDeviation="3.5"/>
<feComposite in2="hardAlpha" operator="out"/>
<feColorMatrix type="matrix" values="0 0 0 0 0.00392157 0 0 0 0 0.180392 0 0 0 0 0.0901961 0 0 0 0.25 0"/>
<feBlend mode="normal" in2="BackgroundImageFix" result="effect1_dropShadow_24_485"/>
<feBlend mode="normal" in="SourceGraphic" in2="effect1_dropShadow_24_485" result="shape"/>
</filter>
<filter id="filter5_d_24_485" x="3" y="1258.5" width="103" height="106" filterUnits="userSpaceOnUse" color-interpolation-filters="sRGB">
<feFlood flood-opacity="0" result="BackgroundImageFix"/>
<feColorMatrix in="SourceAlpha" type="matrix" values="0 0 0 0 0 0 0 0 0 0 0 0 0 0 0 0 0 0 127 0" result="hardAlpha"/>
<feOffset dy="7"/>
<feGaussianBlur stdDeviation="2"/>
<feComposite in2="hardAlpha" operator="out"/>
<feColorMatrix type="matrix" values="0 0 0 0 0.00522569 0 0 0 0 0.179167 0 0 0 0 0.0901969 0 0 0 0.25 0"/>
<feBlend mode="normal" in2="BackgroundImageFix" result="effect1_dropShadow_24_485"/>
<feBlend mode="normal" in="SourceGraphic" in2="effect1_dropShadow_24_485" result="shape"/>
</filter>
<linearGradient id="paint0_linear_24_485" x1="54.5" y1="3.5" x2="54.5" y2="98.5" gradientUnits="userSpaceOnUse">
<stop offset="0.9999" stop-color="#38AA70"/>
<stop offset="1" stop-color="#10BE65" stop-opacity="0"/>
</linearGradient>
<linearGradient id="paint1_linear_24_485" x1="54.5" y1="254.5" x2="54.5" y2="349.5" gradientUnits="userSpaceOnUse">
<stop offset="0.9999" stop-color="#38AA70"/>
<stop offset="1" stop-color="#10BE65" stop-opacity="0"/>
</linearGradient>
<linearGradient id="paint2_linear_24_485" x1="54.5" y1="505.5" x2="54.5" y2="600.5" gradientUnits="userSpaceOnUse">
<stop offset="0.9999" stop-color="#38AA70"/>
<stop offset="1" stop-color="#10BE65" stop-opacity="0"/>
</linearGradient>
<linearGradient id="paint3_linear_24_485" x1="54.5" y1="756.5" x2="54.5" y2="851.5" gradientUnits="userSpaceOnUse">
<stop offset="0.9999" stop-color="#38AA70"/>
<stop offset="1" stop-color="#10BE65" stop-opacity="0"/>
</linearGradient>
<linearGradient id="paint4_linear_24_485" x1="54.5" y1="1007.5" x2="54.5" y2="1102.5" gradientUnits="userSpaceOnUse">
<stop offset="0.9999" stop-color="#38AA70"/>
<stop offset="1" stop-color="#10BE65" stop-opacity="0"/>
</linearGradient>
<linearGradient id="paint5_linear_24_485" x1="54.5" y1="1258.5" x2="54.5" y2="1353.5" gradientUnits="userSpaceOnUse">
<stop offset="0.9999" stop-color="#38AA70"/>
<stop offset="1" stop-color="#10BE65" stop-opacity="0"/>
</linearGradient>
</defs>
</svg>
