<svg width="64" height="64" viewBox="0 0 64 64" fill="none" xmlns="http://www.w3.org/2000/svg">
<path opacity="0.4" d="M47.9467 28.7734V39.44C47.9467 40.1334 47.92 40.8 47.84 41.44C47.2267 48.64 42.9867 52.2133 35.1734 52.2133H34.1067C33.4401 52.2133 32.8 52.5333 32.4 53.0666L29.2001 57.3333C27.7867 59.2267 25.4934 59.2267 24.08 57.3333L20.88 53.0666C20.5333 52.6133 19.76 52.2133 19.1734 52.2133H18.1067C9.60006 52.2133 5.33337 50.1067 5.33337 39.44V28.7734C5.33337 20.96 8.9334 16.72 16.1067 16.1067C16.7467 16.0267 17.4134 16 18.1067 16H35.1734C43.68 16 47.9467 20.2667 47.9467 28.7734Z" fill="#84CCA7"/>
<path d="M26.6407 37.3333C25.1473 37.3333 23.974 36.1333 23.974 34.6667C23.974 33.2 25.174 32 26.6407 32C28.1073 32 29.3073 33.2 29.3073 34.6667C29.3073 36.1333 28.134 37.3333 26.6407 37.3333Z" fill="#84CCA7"/>
<path d="M35.9739 37.3333C34.4806 37.3333 33.3073 36.1333 33.3073 34.6667C33.3073 33.2 34.5073 32 35.9739 32C37.4406 32 38.6406 33.2 38.6406 34.6667C38.6406 36.1333 37.4406 37.3333 35.9739 37.3333Z" fill="#84CCA7"/>
<path d="M17.3333 37.3333C15.84 37.3333 14.6666 36.1333 14.6666 34.6667C14.6666 33.2 15.8666 32 17.3333 32C18.8 32 20 33.2 20 34.6667C20 36.1333 18.8 37.3333 17.3333 37.3333Z" fill="#84CCA7"/>
<path d="M58.6134 18.1067V28.7734C58.6134 36.6134 55.0133 40.8267 47.84 41.4401C47.92 40.8001 47.9467 40.1334 47.9467 39.4401V28.7734C47.9467 20.2667 43.68 16 35.1733 16H18.1067C17.4134 16 16.7467 16.0267 16.1067 16.1067C16.72 8.9334 20.96 5.33337 28.7734 5.33337H45.84C54.3467 5.33337 58.6134 9.60006 58.6134 18.1067Z" fill="#84CCA7"/>
</svg>
