<svg width="64" height="64" viewBox="0 0 64 64" fill="none" xmlns="http://www.w3.org/2000/svg">
<path opacity="0.4" d="M32 58.6666C46.7276 58.6666 58.6667 46.7276 58.6667 32C58.6667 17.2724 46.7276 5.33331 32 5.33331C17.2724 5.33331 5.33337 17.2724 5.33337 32C5.33337 46.7276 17.2724 58.6666 32 58.6666Z" fill="#84CCA7"/>
<path d="M43.0667 34.2133L38.4533 35.76C37.1733 36.1867 36.1867 37.1734 35.76 38.4534L34.2133 43.0666C32.9067 47.04 27.3067 46.96 26.08 42.9866L20.88 26.24C19.8667 22.9066 22.9333 19.84 26.2133 20.8533L42.9867 26.0533C46.96 27.3066 47.0133 32.9066 43.0667 34.2133Z" fill="#84CCA7"/>
</svg>
