<svg width="45" height="46" viewBox="0 0 45 46" fill="none" xmlns="http://www.w3.org/2000/svg">
<g filter="url(#filter0_d_42_46032)">
<circle cx="22.5" cy="20.5" r="20.5" fill="url(#paint0_linear_42_46032)" shape-rendering="crispEdges"/>
<circle cx="22.5" cy="20.5" r="19.8526" stroke="white" stroke-width="1.29474" shape-rendering="crispEdges"/>
</g>
<path d="M23.2446 27.8488C22.199 27.8488 21.3189 27.6569 20.6042 27.2731C19.8895 26.8893 19.3137 26.3731 18.877 25.7246C18.4402 25.0761 18.1226 24.3548 17.9241 23.5607C17.7388 22.7666 17.6461 21.9526 17.6461 21.1188C17.6461 19.5703 17.8645 18.2269 18.3013 17.0887C18.738 15.9372 19.3667 15.0505 20.1873 14.4284C21.0078 13.7932 22.0005 13.4755 23.1651 13.4755C24.1181 13.4755 24.9254 13.6674 25.5872 14.0512C26.2622 14.4218 26.7849 14.9115 27.1555 15.5203C27.5261 16.1292 27.7445 16.7843 27.8107 17.4858H25.4482C25.3291 16.8769 25.071 16.4071 24.6739 16.0762C24.2769 15.7453 23.7673 15.5799 23.1453 15.5799C22.2585 15.5799 21.5439 15.9902 21.0012 16.8108C20.4586 17.6181 20.1674 18.8556 20.1277 20.5232C20.4453 19.9806 20.9218 19.5306 21.5571 19.1732C22.1924 18.8159 22.9004 18.6372 23.6813 18.6372C24.449 18.6372 25.1703 18.8225 25.8453 19.1931C26.5202 19.5637 27.0629 20.0864 27.4732 20.7614C27.8967 21.4364 28.1085 22.2305 28.1085 23.1438C28.1085 23.9776 27.9033 24.7518 27.493 25.4665C27.096 26.1812 26.5269 26.7569 25.7857 27.1937C25.0578 27.6304 24.2107 27.8488 23.2446 27.8488ZM23.1056 25.665C23.8468 25.665 24.4556 25.44 24.932 24.99C25.4217 24.5268 25.6666 23.9445 25.6666 23.243C25.6666 22.5019 25.4217 21.9063 24.932 21.4563C24.4423 21.0063 23.8203 20.7813 23.0659 20.7813C22.5762 20.7813 22.1328 20.8938 21.7358 21.1188C21.3519 21.3305 21.0475 21.6217 20.8225 21.9923C20.5975 22.3496 20.485 22.7533 20.485 23.2033C20.485 23.918 20.7299 24.507 21.2196 24.9702C21.7225 25.4334 22.3512 25.665 23.1056 25.665Z" fill="white"/>
<defs>
<filter id="filter0_d_42_46032" x="0.273684" y="0" width="44.4526" height="45.7474" filterUnits="userSpaceOnUse" color-interpolation-filters="sRGB">
<feFlood flood-opacity="0" result="BackgroundImageFix"/>
<feColorMatrix in="SourceAlpha" type="matrix" values="0 0 0 0 0 0 0 0 0 0 0 0 0 0 0 0 0 0 127 0" result="hardAlpha"/>
<feOffset dy="3.02105"/>
<feGaussianBlur stdDeviation="0.863158"/>
<feComposite in2="hardAlpha" operator="out"/>
<feColorMatrix type="matrix" values="0 0 0 0 0.00522569 0 0 0 0 0.179167 0 0 0 0 0.0901969 0 0 0 0.25 0"/>
<feBlend mode="normal" in2="BackgroundImageFix" result="effect1_dropShadow_42_46032"/>
<feBlend mode="normal" in="SourceGraphic" in2="effect1_dropShadow_42_46032" result="shape"/>
</filter>
<linearGradient id="paint0_linear_42_46032" x1="22.5" y1="0" x2="22.5" y2="41" gradientUnits="userSpaceOnUse">
<stop offset="0.9999" stop-color="#38AA70"/>
<stop offset="1" stop-color="#10BE65" stop-opacity="0"/>
</linearGradient>
</defs>
</svg>
