<svg width="64" height="64" viewBox="0 0 64 64" fill="none" xmlns="http://www.w3.org/2000/svg">
<path opacity="0.4" d="M29.36 53.3867C42.6296 53.3867 53.3867 42.6296 53.3867 29.36C53.3867 16.0904 42.6296 5.33334 29.36 5.33334C16.0905 5.33334 5.33337 16.0904 5.33337 29.36C5.33337 42.6296 16.0905 53.3867 29.36 53.3867Z" fill="#84CCA7"/>
<path d="M58.6401 50.5333C57.7601 48.9067 55.8934 48 53.3868 48C51.4934 48 49.8668 48.7733 48.9068 50.1067C47.9468 51.44 47.7334 53.2267 48.3201 55.0133C49.4668 58.48 51.4668 59.2533 52.5601 59.3867C52.7201 59.4133 52.8801 59.4133 53.0668 59.4133C54.2401 59.4133 56.0534 58.9067 57.8134 56.2667C59.2268 54.2133 59.4934 52.16 58.6401 50.5333Z" fill="#84CCA7"/>
</svg>
