<svg width="24" height="25" viewBox="0 0 24 25" fill="none" xmlns="http://www.w3.org/2000/svg">
<path fill-rule="evenodd" clip-rule="evenodd" d="M10.875 3.92615C6.93997 3.92615 3.75 7.11612 3.75 11.0511C3.75 14.9862 6.93997 18.1761 10.875 18.1761C14.81 18.1761 18 14.9862 18 11.0511C18 7.11612 14.81 3.92615 10.875 3.92615ZM2.25 11.0511C2.25 6.28769 6.11154 2.42615 10.875 2.42615C15.6385 2.42615 19.5 6.28769 19.5 11.0511C19.5 15.8146 15.6385 19.6761 10.875 19.6761C6.11154 19.6761 2.25 15.8146 2.25 11.0511Z" fill="#141414" fill-opacity="0.5"/>
<path fill-rule="evenodd" clip-rule="evenodd" d="M15.9134 16.0896C16.2063 15.7967 16.6812 15.7967 16.9741 16.0896L21.5303 20.6458C21.8232 20.9387 21.8232 21.4136 21.5303 21.7065C21.2374 21.9994 20.7625 21.9994 20.4696 21.7065L15.9134 17.1502C15.6205 16.8573 15.6205 16.3825 15.9134 16.0896Z" fill="#141414" fill-opacity="0.5"/>
</svg>
