<svg width="48" height="48" viewBox="0 0 48 48" fill="none" xmlns="http://www.w3.org/2000/svg">
<path fill-rule="evenodd" clip-rule="evenodd" d="M22 34C22 36.1217 21.1571 38.1566 19.6569 39.6569C18.1566 41.1571 16.1217 42 14 42C11.8783 42 9.84344 41.1571 8.34315 39.6569C6.84285 38.1566 6 36.1217 6 34C6 29.58 14 6 14 6H18L14 26C16.1217 26 18.1566 26.8429 19.6569 28.3431C21.1571 29.8434 22 31.8783 22 34ZM42 34C42 36.1217 41.1571 38.1566 39.6569 39.6569C38.1566 41.1571 36.1217 42 34 42C31.8783 42 29.8434 41.1571 28.3431 39.6569C26.8429 38.1566 26 36.1217 26 34C26 29.58 34 6 34 6H38L34 26C36.1217 26 38.1566 26.8429 39.6569 28.3431C41.1571 29.8434 42 31.8783 42 34Z" fill="#DADDE6"/>
</svg>
