<svg width="148" height="28" viewBox="0 0 148 28" fill="none" xmlns="http://www.w3.org/2000/svg">
<path d="M12.9241 4.51321C13.3643 3.62141 14.636 3.62141 15.0762 4.51321L17.3262 9.07149C17.5009 9.42531 17.8383 9.67066 18.2287 9.72773L23.2623 10.4635C24.2462 10.6073 24.6383 11.8167 23.926 12.5105L20.2856 16.0562C20.0026 16.3319 19.8734 16.7292 19.9402 17.1187L20.7991 22.1264C20.9672 23.1068 19.9382 23.8543 19.0578 23.3913L14.5587 21.0253C14.209 20.8414 13.7913 20.8414 13.4416 21.0253L8.94252 23.3913C8.06217 23.8543 7.03311 23.1068 7.20125 22.1264L8.06013 17.1187C8.12693 16.7292 7.99773 16.3319 7.71468 16.0562L4.07431 12.5105C3.362 11.8167 3.75414 10.6073 4.73804 10.4635L9.7716 9.72773C10.162 9.67066 10.4995 9.42531 10.6741 9.07149L12.9241 4.51321Z" fill="#FFAA00"/>
<path d="M42.9241 4.51321C43.3643 3.62141 44.636 3.62141 45.0762 4.51321L47.3262 9.07149C47.5009 9.42531 47.8383 9.67066 48.2287 9.72773L53.2623 10.4635C54.2462 10.6073 54.6383 11.8167 53.926 12.5105L50.2856 16.0562C50.0026 16.3319 49.8734 16.7292 49.9402 17.1187L50.7991 22.1264C50.9672 23.1068 49.9382 23.8543 49.0578 23.3913L44.5587 21.0253C44.209 20.8414 43.7913 20.8414 43.4416 21.0253L38.9425 23.3913C38.0622 23.8543 37.0331 23.1068 37.2013 22.1264L38.0601 17.1187C38.1269 16.7292 37.9977 16.3319 37.7147 16.0562L34.0743 12.5105C33.362 11.8167 33.7541 10.6073 34.738 10.4635L39.7716 9.72773C40.162 9.67066 40.4995 9.42531 40.6741 9.07149L42.9241 4.51321Z" fill="#FFAA00"/>
<path d="M72.9241 4.51321C73.3643 3.62141 74.636 3.62141 75.0762 4.51321L77.3262 9.07149C77.5009 9.42531 77.8383 9.67066 78.2287 9.72773L83.2623 10.4635C84.2462 10.6073 84.6383 11.8167 83.926 12.5105L80.2856 16.0562C80.0026 16.3319 79.8734 16.7292 79.9402 17.1187L80.7991 22.1264C80.9672 23.1068 79.9382 23.8543 79.0578 23.3913L74.5587 21.0253C74.209 20.8414 73.7913 20.8414 73.4416 21.0253L68.9425 23.3913C68.0622 23.8543 67.0331 23.1068 67.2013 22.1264L68.0601 17.1187C68.1269 16.7292 67.9977 16.3319 67.7147 16.0562L64.0743 12.5105C63.362 11.8167 63.7541 10.6073 64.738 10.4635L69.7716 9.72773C70.162 9.67066 70.4995 9.42531 70.6741 9.07149L72.9241 4.51321Z" fill="#FFAA00"/>
<path d="M102.924 4.51321C103.364 3.62141 104.636 3.62141 105.076 4.51321L107.326 9.07149C107.501 9.42531 107.838 9.67066 108.229 9.72773L113.262 10.4635C114.246 10.6073 114.638 11.8167 113.926 12.5105L110.286 16.0562C110.003 16.3319 109.873 16.7292 109.94 17.1187L110.799 22.1264C110.967 23.1068 109.938 23.8543 109.058 23.3913L104.559 21.0253C104.209 20.8414 103.791 20.8414 103.442 21.0253L98.9425 23.3913C98.0622 23.8543 97.0331 23.1068 97.2013 22.1264L98.0601 17.1187C98.1269 16.7292 97.9977 16.3319 97.7147 16.0562L94.0743 12.5105C93.362 11.8167 93.7541 10.6073 94.738 10.4635L99.7716 9.72773C100.162 9.67066 100.499 9.42531 100.674 9.07149L102.924 4.51321Z" fill="#FFAA00"/>
<path d="M132.924 4.51321C133.364 3.62141 134.636 3.62141 135.076 4.51321L137.326 9.07149C137.501 9.42531 137.838 9.67066 138.229 9.72773L143.262 10.4635C144.246 10.6073 144.638 11.8167 143.926 12.5105L140.286 16.0562C140.003 16.3319 139.873 16.7292 139.94 17.1187L140.799 22.1264C140.967 23.1068 139.938 23.8543 139.058 23.3913L134.559 21.0253C134.209 20.8414 133.791 20.8414 133.442 21.0253L128.943 23.3913C128.062 23.8543 127.033 23.1068 127.201 22.1264L128.06 17.1187C128.127 16.7292 127.998 16.3319 127.715 16.0562L124.074 12.5105C123.362 11.8167 123.754 10.6073 124.738 10.4635L129.772 9.72773C130.162 9.67066 130.499 9.42531 130.674 9.07149L132.924 4.51321Z" fill="#FFAA00"/>
</svg>
