<svg width="16" height="16" viewBox="0 0 16 16" fill="none" xmlns="http://www.w3.org/2000/svg">
<path fill-rule="evenodd" clip-rule="evenodd" d="M3 14.5C3 14.2239 3.22386 14 3.5 14H12.5C12.7761 14 13 14.2239 13 14.5C13 14.7761 12.7761 15 12.5 15H3.5C3.22386 15 3 14.7761 3 14.5Z" fill="#141414" fill-opacity="0.7"/>
<path fill-rule="evenodd" clip-rule="evenodd" d="M8 5C7.17157 5 6.5 5.67157 6.5 6.5C6.5 7.32843 7.17157 8 8 8C8.82843 8 9.5 7.32843 9.5 6.5C9.5 5.67157 8.82843 5 8 5ZM5.5 6.5C5.5 5.11929 6.61929 4 8 4C9.38071 4 10.5 5.11929 10.5 6.5C10.5 7.88071 9.38071 9 8 9C6.61929 9 5.5 7.88071 5.5 6.5Z" fill="#141414" fill-opacity="0.7"/>
<path fill-rule="evenodd" clip-rule="evenodd" d="M8 2C6.80653 2 5.66193 2.47411 4.81802 3.31802C3.97411 4.16193 3.5 5.30653 3.5 6.5C3.5 8.56997 4.65592 10.4548 5.8773 11.8594C6.48189 12.5547 7.08775 13.1152 7.54257 13.5018C7.72245 13.6547 7.87812 13.7799 8 13.875C8.12188 13.7799 8.27755 13.6547 8.45743 13.5018C8.91225 13.1152 9.51812 12.5547 10.1227 11.8594C11.3441 10.4548 12.5 8.56997 12.5 6.5C12.5 5.30653 12.0259 4.16193 11.182 3.31802C10.3381 2.47411 9.19347 2 8 2ZM8 14.5C7.71327 14.9096 7.71313 14.9095 7.71297 14.9094L7.71256 14.9091L7.71139 14.9083L7.70769 14.9057L7.69498 14.8966C7.68417 14.8889 7.66876 14.8778 7.64904 14.8634C7.60962 14.8347 7.55296 14.7927 7.48154 14.7381C7.33874 14.6289 7.13661 14.4692 6.89493 14.2638C6.41225 13.8535 5.76811 13.2578 5.1227 12.5156C3.84408 11.0452 2.5 8.93003 2.5 6.5C2.5 5.04131 3.07946 3.64236 4.11091 2.61091C5.14236 1.57946 6.54131 1 8 1C9.45869 1 10.8576 1.57946 11.8891 2.61091C12.9205 3.64236 13.5 5.04131 13.5 6.5C13.5 8.93003 12.1559 11.0452 10.8773 12.5156C10.2319 13.2578 9.58775 13.8535 9.10507 14.2638C8.86339 14.4692 8.66126 14.6289 8.51846 14.7381C8.44704 14.7927 8.39038 14.8347 8.35096 14.8634C8.33124 14.8778 8.31583 14.8889 8.30502 14.8966L8.29231 14.9057L8.28861 14.9083L8.28744 14.9091L8.28703 14.9094C8.28687 14.9095 8.28673 14.9096 8 14.5ZM8 14.5L8.28673 14.9096C8.11457 15.0301 7.88543 15.0301 7.71327 14.9096L8 14.5Z" fill="#141414" fill-opacity="0.7"/>
</svg>
