<svg width="24" height="24" viewBox="0 0 24 24" fill="none" xmlns="http://www.w3.org/2000/svg">
<circle cx="12" cy="12" r="12" fill="#D9D9D9" fill-opacity="0.25"/>
<path opacity="0.4" d="M10.5 9.6V14.4C10.5 16 11.5 17 13.1 17H14.395C16 17 17 16 17 14.4V9.605C17 8.005 16 7.005 14.4 7.005H13.1C11.5 7 10.5 8 10.5 9.6Z" fill="#141414" fill-opacity="0.7"/>
<path d="M8.78497 10.0601L7.10997 11.7351C6.96497 11.8801 6.96497 12.1201 7.10997 12.2651L8.78497 13.9401C8.92997 14.0851 9.16997 14.0851 9.31497 13.9401C9.45997 13.7951 9.45997 13.5551 9.31497 13.4101L8.27997 12.3751H13.625C13.83 12.3751 14 12.2051 14 12.0001C14 11.7951 13.83 11.6251 13.625 11.6251H8.27997L9.31497 10.5901C9.38997 10.5151 9.42497 10.4201 9.42497 10.3251C9.42497 10.2301 9.38997 10.1351 9.31497 10.0601C9.16997 9.91008 8.93497 9.91008 8.78497 10.0601Z" fill="#141414" fill-opacity="0.7"/>
</svg>
