<svg width="105" height="21" viewBox="0 0 105 21" fill="none" xmlns="http://www.w3.org/2000/svg">
<path d="M11.6909 3.49453L13.1575 6.42787C13.3575 6.8362 13.8909 7.22786 14.3409 7.30287L16.9992 7.74453C18.6992 8.02786 19.0992 9.2612 17.8742 10.4779L15.8075 12.5445C15.4575 12.8945 15.2659 13.5695 15.3742 14.0529L15.9659 16.6112C16.4325 18.6362 15.3575 19.4195 13.5659 18.3612L11.0742 16.8862C10.6242 16.6195 9.88253 16.6195 9.42419 16.8862L6.93253 18.3612C5.14919 19.4195 4.06586 18.6279 4.53253 16.6112L5.12419 14.0529C5.23253 13.5695 5.04086 12.8945 4.69086 12.5445L2.62419 10.4779C1.40753 9.2612 1.79919 8.02786 3.49919 7.74453L6.15753 7.30287C6.59919 7.22786 7.13253 6.8362 7.33253 6.42787L8.79919 3.49453C9.59919 1.90286 10.8992 1.90286 11.6909 3.49453Z" fill="#DDA01D"/>
<path d="M32.6909 3.49453L34.1575 6.42787C34.3575 6.8362 34.8909 7.22786 35.3409 7.30287L37.9992 7.74453C39.6992 8.02786 40.0992 9.2612 38.8742 10.4779L36.8075 12.5445C36.4575 12.8945 36.2659 13.5695 36.3742 14.0529L36.9659 16.6112C37.4325 18.6362 36.3575 19.4195 34.5659 18.3612L32.0742 16.8862C31.6242 16.6195 30.8825 16.6195 30.4242 16.8862L27.9325 18.3612C26.1492 19.4195 25.0659 18.6279 25.5325 16.6112L26.1242 14.0529C26.2325 13.5695 26.0409 12.8945 25.6909 12.5445L23.6242 10.4779C22.4075 9.2612 22.7992 8.02786 24.4992 7.74453L27.1575 7.30287C27.5992 7.22786 28.1325 6.8362 28.3325 6.42787L29.7992 3.49453C30.5992 1.90286 31.8992 1.90286 32.6909 3.49453Z" fill="#DDA01D"/>
<path d="M53.6909 3.49453L55.1575 6.42787C55.3575 6.8362 55.8909 7.22786 56.3409 7.30287L58.9992 7.74453C60.6992 8.02786 61.0992 9.2612 59.8742 10.4779L57.8075 12.5445C57.4575 12.8945 57.2659 13.5695 57.3742 14.0529L57.9659 16.6112C58.4325 18.6362 57.3575 19.4195 55.5659 18.3612L53.0742 16.8862C52.6242 16.6195 51.8825 16.6195 51.4242 16.8862L48.9325 18.3612C47.1492 19.4195 46.0659 18.6279 46.5325 16.6112L47.1242 14.0529C47.2325 13.5695 47.0409 12.8945 46.6909 12.5445L44.6242 10.4779C43.4075 9.2612 43.7992 8.02786 45.4992 7.74453L48.1575 7.30287C48.5992 7.22786 49.1325 6.8362 49.3325 6.42787L50.7992 3.49453C51.5992 1.90286 52.8992 1.90286 53.6909 3.49453Z" fill="#DDA01D"/>
<path d="M74.6909 3.49453L76.1575 6.42787C76.3575 6.8362 76.8909 7.22786 77.3409 7.30287L79.9992 7.74453C81.6992 8.02786 82.0992 9.2612 80.8742 10.4779L78.8075 12.5445C78.4575 12.8945 78.2659 13.5695 78.3742 14.0529L78.9659 16.6112C79.4325 18.6362 78.3575 19.4195 76.5659 18.3612L74.0742 16.8862C73.6242 16.6195 72.8825 16.6195 72.4242 16.8862L69.9325 18.3612C68.1492 19.4195 67.0659 18.6279 67.5325 16.6112L68.1242 14.0529C68.2325 13.5695 68.0409 12.8945 67.6909 12.5445L65.6242 10.4779C64.4075 9.2612 64.7992 8.02786 66.4992 7.74453L69.1575 7.30287C69.5992 7.22786 70.1325 6.8362 70.3325 6.42787L71.7992 3.49453C72.5992 1.90286 73.8992 1.90286 74.6909 3.49453Z" fill="#DDA01D"/>
<path d="M95.6909 3.49453L97.1575 6.42787C97.3575 6.8362 97.8909 7.22786 98.3409 7.30287L100.999 7.74453C102.699 8.02786 103.099 9.2612 101.874 10.4779L99.8075 12.5445C99.4575 12.8945 99.2659 13.5695 99.3742 14.0529L99.9659 16.6112C100.433 18.6362 99.3575 19.4195 97.5659 18.3612L95.0742 16.8862C94.6242 16.6195 93.8825 16.6195 93.4242 16.8862L90.9325 18.3612C89.1492 19.4195 88.0659 18.6279 88.5325 16.6112L89.1242 14.0529C89.2325 13.5695 89.0409 12.8945 88.6909 12.5445L86.6242 10.4779C85.4075 9.2612 85.7992 8.02786 87.4992 7.74453L90.1575 7.30287C90.5992 7.22786 91.1325 6.8362 91.3325 6.42787L92.7992 3.49453C93.5992 1.90286 94.8992 1.90286 95.6909 3.49453Z" fill="#DDA01D"/>
</svg>
