<svg width="41" height="42" viewBox="0 0 41 42" fill="none" xmlns="http://www.w3.org/2000/svg">
<path d="M15.03 19.0225C14.855 19.005 14.645 19.005 14.4525 19.0225C10.2875 18.8825 6.97998 15.47 6.97998 11.27C6.97998 6.9825 10.445 3.5 14.75 3.5C19.0375 3.5 22.52 6.9825 22.52 11.27C22.5025 15.47 19.195 18.8825 15.03 19.0225Z" stroke="#141414" stroke-width="1.5" stroke-linecap="round" stroke-linejoin="round"/>
<path d="M27.7175 7C31.1125 7 33.8425 9.7475 33.8425 13.125C33.8425 16.4325 31.2175 19.1275 27.945 19.25C27.805 19.2325 27.6475 19.2325 27.49 19.25" stroke="#141414" stroke-width="1.5" stroke-linecap="round" stroke-linejoin="round"/>
<path d="M6.28001 25.48C2.04501 28.315 2.04501 32.935 6.28001 35.7525C11.0925 38.9725 18.985 38.9725 23.7975 35.7525C28.0325 32.9175 28.0325 28.2975 23.7975 25.48C19.0025 22.2775 11.11 22.2775 6.28001 25.48Z" stroke="#141414" stroke-width="1.5" stroke-linecap="round" stroke-linejoin="round"/>
<path d="M31.095 35C32.355 34.7375 33.545 34.23 34.525 33.4775C37.255 31.43 37.255 28.0525 34.525 26.005C33.5625 25.27 32.39 24.78 31.1475 24.5" stroke="#141414" stroke-width="1.5" stroke-linecap="round" stroke-linejoin="round"/>
</svg>
