<svg width="24" height="24" viewBox="0 0 24 24" fill="none" xmlns="http://www.w3.org/2000/svg">
<circle cx="12" cy="12" r="12" fill="#D9D9D9" fill-opacity="0.25"/>
<path opacity="0.4" d="M7 12.4402V11.5602C7 11.0402 7.425 10.6102 7.95 10.6102C8.855 10.6102 9.225 9.97021 8.77 9.18521C8.51 8.73521 8.665 8.15021 9.12 7.89021L9.985 7.39521C10.38 7.16021 10.89 7.30021 11.125 7.69521L11.18 7.79021C11.63 8.57521 12.37 8.57521 12.825 7.79021L12.88 7.69521C13.115 7.30021 13.625 7.16021 14.02 7.39521L14.885 7.89021C15.34 8.15021 15.495 8.73521 15.235 9.18521C14.78 9.97021 15.15 10.6102 16.055 10.6102C16.575 10.6102 17.005 11.0352 17.005 11.5602V12.4402C17.005 12.9602 16.58 13.3902 16.055 13.3902C15.15 13.3902 14.78 14.0302 15.235 14.8152C15.495 15.2702 15.34 15.8502 14.885 16.1102L14.02 16.6052C13.625 16.8402 13.115 16.7002 12.88 16.3052L12.825 16.2102C12.375 15.4252 11.635 15.4252 11.18 16.2102L11.125 16.3052C10.89 16.7002 10.38 16.8402 9.985 16.6052L9.12 16.1102C8.665 15.8502 8.51 15.2652 8.77 14.8152C9.225 14.0302 8.855 13.3902 7.95 13.3902C7.425 13.3902 7 12.9602 7 12.4402Z" fill="#141414" fill-opacity="0.7"/>
<path d="M12 13.625C12.8975 13.625 13.625 12.8975 13.625 12C13.625 11.1025 12.8975 10.375 12 10.375C11.1025 10.375 10.375 11.1025 10.375 12C10.375 12.8975 11.1025 13.625 12 13.625Z" fill="#141414" fill-opacity="0.7"/>
</svg>
