<svg width="41" height="42" viewBox="0 0 41 42" fill="none" xmlns="http://www.w3.org/2000/svg">
<path d="M20 21C24.8325 21 28.75 17.0825 28.75 12.25C28.75 7.41751 24.8325 3.5 20 3.5C15.1675 3.5 11.25 7.41751 11.25 12.25C11.25 17.0825 15.1675 21 20 21Z" stroke="#141414" stroke-width="1.5" stroke-linecap="round" stroke-linejoin="round"/>
<path d="M4.96753 38.5C4.96753 31.7275 11.705 26.25 20 26.25C21.68 26.25 23.3075 26.4775 24.83 26.8975" stroke="#141414" stroke-width="1.5" stroke-linecap="round" stroke-linejoin="round"/>
<path d="M37.5 31.5C37.5 32.8125 37.1325 34.055 36.485 35.105C36.1175 35.735 35.645 36.295 35.1025 36.75C33.8775 37.8525 32.2675 38.5 30.5 38.5C27.945 38.5 25.7225 37.135 24.515 35.105C23.8675 34.055 23.5 32.8125 23.5 31.5C23.5 29.295 24.515 27.3175 26.125 26.04C27.3325 25.0775 28.855 24.5 30.5 24.5C34.3675 24.5 37.5 27.6325 37.5 31.5Z" stroke="#141414" stroke-width="1.5" stroke-miterlimit="10" stroke-linecap="round" stroke-linejoin="round"/>
<path d="M27.77 31.5L29.5025 33.2325L33.23 29.785" stroke="#141414" stroke-width="1.5" stroke-linecap="round" stroke-linejoin="round"/>
</svg>
