<svg width="24" height="24" viewBox="0 0 24 24" fill="none" xmlns="http://www.w3.org/2000/svg">
<path d="M15.7128 16.773L7.22748 8.28771C6.93757 7.99779 6.93757 7.51696 7.22748 7.22705C7.5174 6.93713 7.99823 6.93713 8.28814 7.22705L16.7734 15.7123C17.0633 16.0022 17.0633 16.4831 16.7734 16.773C16.4835 17.0629 16.0027 17.0629 15.7128 16.773Z" fill="#141414"/>
<path d="M7.22658 16.773C6.93666 16.4831 6.93666 16.0022 7.22658 15.7123L15.7119 7.22705C16.0018 6.93713 16.4826 6.93713 16.7725 7.22705C17.0624 7.51696 17.0624 7.99779 16.7725 8.28771L8.28724 16.773C7.99732 17.0629 7.51649 17.0629 7.22658 16.773Z" fill="#141414"/>
</svg>
