<svg width="41" height="42" viewBox="0 0 41 42" fill="none" xmlns="http://www.w3.org/2000/svg">
<path d="M37.5 14.91V6.965C37.5 4.4975 36.38 3.5 33.5975 3.5H26.5275C23.745 3.5 22.625 4.4975 22.625 6.965V14.8925C22.625 17.3775 23.745 18.3575 26.5275 18.3575H33.5975C36.38 18.375 37.5 17.3775 37.5 14.91Z" stroke="#141414" stroke-width="1.5" stroke-linecap="round" stroke-linejoin="round"/>
<path d="M37.5 34.5975V27.5275C37.5 24.745 36.38 23.625 33.5975 23.625H26.5275C23.745 23.625 22.625 24.745 22.625 27.5275V34.5975C22.625 37.38 23.745 38.5 26.5275 38.5H33.5975C36.38 38.5 37.5 37.38 37.5 34.5975Z" stroke="#141414" stroke-width="1.5" stroke-linecap="round" stroke-linejoin="round"/>
<path d="M17.375 14.91V6.965C17.375 4.4975 16.255 3.5 13.4725 3.5H6.4025C3.62 3.5 2.5 4.4975 2.5 6.965V14.8925C2.5 17.3775 3.62 18.3575 6.4025 18.3575H13.4725C16.255 18.375 17.375 17.3775 17.375 14.91Z" stroke="#141414" stroke-width="1.5" stroke-linecap="round" stroke-linejoin="round"/>
<path d="M17.375 34.5975V27.5275C17.375 24.745 16.255 23.625 13.4725 23.625H6.4025C3.62 23.625 2.5 24.745 2.5 27.5275V34.5975C2.5 37.38 3.62 38.5 6.4025 38.5H13.4725C16.255 38.5 17.375 37.38 17.375 34.5975Z" stroke="#141414" stroke-width="1.5" stroke-linecap="round" stroke-linejoin="round"/>
</svg>
