<svg width="41" height="42" viewBox="0 0 41 42" fill="none" xmlns="http://www.w3.org/2000/svg">
<path d="M20 26.25C22.8995 26.25 25.25 23.8995 25.25 21C25.25 18.1005 22.8995 15.75 20 15.75C17.1005 15.75 14.75 18.1005 14.75 21C14.75 23.8995 17.1005 26.25 20 26.25Z" stroke="#141414" stroke-width="1.5" stroke-miterlimit="10" stroke-linecap="round" stroke-linejoin="round"/>
<path d="M2.5 22.54V19.46C2.5 17.64 3.9875 16.135 5.825 16.135C8.9925 16.135 10.2875 13.895 8.695 11.1475C7.785 9.5725 8.3275 7.525 9.92 6.615L12.9475 4.8825C14.33 4.06 16.115 4.55 16.9375 5.9325L17.13 6.265C18.705 9.0125 21.295 9.0125 22.8875 6.265L23.08 5.9325C23.9025 4.55 25.6875 4.06 27.07 4.8825L30.0975 6.615C31.69 7.525 32.2325 9.5725 31.3225 11.1475C29.73 13.895 31.025 16.135 34.1925 16.135C36.0125 16.135 37.5175 17.6225 37.5175 19.46V22.54C37.5175 24.36 36.03 25.865 34.1925 25.865C31.025 25.865 29.73 28.105 31.3225 30.8525C32.2325 32.445 31.69 34.475 30.0975 35.385L27.07 37.1175C25.6875 37.94 23.9025 37.45 23.08 36.0675L22.8875 35.735C21.3125 32.9875 18.7225 32.9875 17.13 35.735L16.9375 36.0675C16.115 37.45 14.33 37.94 12.9475 37.1175L9.92 35.385C8.3275 34.475 7.785 32.4275 8.695 30.8525C10.2875 28.105 8.9925 25.865 5.825 25.865C3.9875 25.865 2.5 24.36 2.5 22.54Z" stroke="#141414" stroke-width="1.5" stroke-miterlimit="10" stroke-linecap="round" stroke-linejoin="round"/>
</svg>
