<svg width="16" height="16" viewBox="0 0 16 16" fill="none" xmlns="http://www.w3.org/2000/svg">
<path d="M7.99999 12.1831L5.23332 13.8498C5.1111 13.9276 4.98332 13.9609 4.84999 13.9498C4.71665 13.9387 4.59999 13.8943 4.49999 13.8165C4.39999 13.7387 4.32221 13.6416 4.26665 13.5251C4.2111 13.4082 4.19999 13.2776 4.23332 13.1331L4.96665 9.98314L2.51665 7.86647C2.40554 7.76647 2.33621 7.65247 2.30865 7.52447C2.28065 7.39692 2.28887 7.27203 2.33332 7.14981C2.37776 7.02758 2.44443 6.92758 2.53332 6.8498C2.62221 6.77203 2.74443 6.72203 2.89999 6.69981L6.13332 6.41647L7.38332 3.4498C7.43887 3.31647 7.5251 3.21647 7.64199 3.1498C7.75843 3.08314 7.87776 3.0498 7.99999 3.0498C8.12221 3.0498 8.24176 3.08314 8.35865 3.1498C8.4751 3.21647 8.5611 3.31647 8.61665 3.4498L9.86665 6.41647L13.1 6.69981C13.2555 6.72203 13.3778 6.77203 13.4667 6.8498C13.5555 6.92758 13.6222 7.02758 13.6667 7.14981C13.7111 7.27203 13.7195 7.39692 13.692 7.52447C13.664 7.65247 13.5944 7.76647 13.4833 7.86647L11.0333 9.98314L11.7667 13.1331C11.8 13.2776 11.7889 13.4082 11.7333 13.5251C11.6778 13.6416 11.6 13.7387 11.5 13.8165C11.4 13.8943 11.2833 13.9387 11.15 13.9498C11.0167 13.9609 10.8889 13.9276 10.7667 13.8498L7.99999 12.1831Z" fill="#FFAA00"/>
</svg>
