<svg width="56" height="56" viewBox="0 0 56 56" fill="none" xmlns="http://www.w3.org/2000/svg">
<path d="M42 30.3333C39.8067 30.3333 37.7767 31.1033 36.1667 32.3867C34.02 34.09 32.6667 36.7267 32.6667 39.6667C32.6667 41.4167 33.1566 43.0733 34.02 44.4733C35.63 47.18 38.5933 49 42 49C44.3567 49 46.5033 48.1367 48.1367 46.6667C48.86 46.06 49.49 45.3133 49.98 44.4733C50.8434 43.0733 51.3333 41.4167 51.3333 39.6667C51.3333 34.51 47.1567 30.3333 42 30.3333ZM46.83 38.6634L41.86 43.26C41.5333 43.5633 41.09 43.7266 40.67 43.7266C40.2267 43.7266 39.7833 43.5634 39.4333 43.2134L37.1233 40.9034C36.4467 40.2267 36.4467 39.1066 37.1233 38.4299C37.8 37.7533 38.92 37.7533 39.5967 38.4299L40.7167 39.55L44.45 36.0966C45.15 35.4433 46.27 35.49 46.9233 36.19C47.5766 36.89 47.53 37.9867 46.83 38.6634Z" fill="white"/>
<path opacity="0.4" d="M49.21 50.1667C49.21 50.82 48.6967 51.3333 48.0433 51.3333H7.95668C7.30334 51.3333 6.79001 50.82 6.79001 50.1667C6.79001 40.5067 16.31 32.6667 28 32.6667C30.4033 32.6667 32.7367 32.9933 34.8834 33.6233C33.5067 35.2566 32.6667 37.38 32.6667 39.6667C32.6667 41.4167 33.1566 43.0733 34.02 44.4733C34.4866 45.2667 35.0933 45.9899 35.7933 46.5966C37.4267 48.0899 39.5967 49 42 49C44.6133 49 46.97 47.9266 48.65 46.2C49.0233 47.46 49.21 48.79 49.21 50.1667Z" fill="white"/>
<path d="M28 28C34.4433 28 39.6667 22.7767 39.6667 16.3333C39.6667 9.89001 34.4433 4.66667 28 4.66667C21.5567 4.66667 16.3333 9.89001 16.3333 16.3333C16.3333 22.7767 21.5567 28 28 28Z" fill="white"/>
</svg>
