<svg width="108" height="108" viewBox="0 0 108 108" fill="none" xmlns="http://www.w3.org/2000/svg">
<g filter="url(#filter0_d_53_581)">
<circle cx="54" cy="50" r="50" fill="#ECFDF4"/>
</g>
<path opacity="0.4" d="M54 50C58.8325 50 62.75 46.0825 62.75 41.25C62.75 36.4175 58.8325 32.5 54 32.5C49.1675 32.5 45.25 36.4175 45.25 41.25C45.25 46.0825 49.1675 50 54 50Z" fill="#10BE65"/>
<path d="M54 54.375C45.2325 54.375 38.0925 60.255 38.0925 67.5C38.0925 67.99 38.4775 68.375 38.9675 68.375H69.0325C69.5225 68.375 69.9075 67.99 69.9075 67.5C69.9075 60.255 62.7675 54.375 54 54.375Z" fill="#10BE65"/>
<defs>
<filter id="filter0_d_53_581" x="0" y="0" width="108" height="108" filterUnits="userSpaceOnUse" color-interpolation-filters="sRGB">
<feFlood flood-opacity="0" result="BackgroundImageFix"/>
<feColorMatrix in="SourceAlpha" type="matrix" values="0 0 0 0 0 0 0 0 0 0 0 0 0 0 0 0 0 0 127 0" result="hardAlpha"/>
<feOffset dy="4"/>
<feGaussianBlur stdDeviation="2"/>
<feColorMatrix type="matrix" values="0 0 0 0 0 0 0 0 0 0.470588 0 0 0 0 0.941176 0 0 0 0.05 0"/>
<feBlend mode="normal" in2="BackgroundImageFix" result="effect1_dropShadow_53_581"/>
<feBlend mode="normal" in="SourceGraphic" in2="effect1_dropShadow_53_581" result="shape"/>
</filter>
</defs>
</svg>
