<svg width="21" height="24" viewBox="0 0 21 24" fill="none" xmlns="http://www.w3.org/2000/svg">
<path fill-rule="evenodd" clip-rule="evenodd" d="M1.5 21.25C1.5 20.8358 1.83579 20.5 2.25 20.5H15.75C16.1642 20.5 16.5 20.8358 16.5 21.25C16.5 21.6642 16.1642 22 15.75 22H2.25C1.83579 22 1.5 21.6642 1.5 21.25Z" fill="#141414" fill-opacity="0.7"/>
<path fill-rule="evenodd" clip-rule="evenodd" d="M9 7C7.75736 7 6.75 8.00736 6.75 9.25C6.75 10.4926 7.75736 11.5 9 11.5C10.2426 11.5 11.25 10.4926 11.25 9.25C11.25 8.00736 10.2426 7 9 7ZM5.25 9.25C5.25 7.17893 6.92893 5.5 9 5.5C11.0711 5.5 12.75 7.17893 12.75 9.25C12.75 11.3211 11.0711 13 9 13C6.92893 13 5.25 11.3211 5.25 9.25Z" fill="#141414" fill-opacity="0.7"/>
<path fill-rule="evenodd" clip-rule="evenodd" d="M9 2.5C7.20979 2.5 5.4929 3.21116 4.22703 4.47703C2.96116 5.7429 2.25 7.45979 2.25 9.25C2.25 12.355 3.98389 15.1822 5.81595 17.2891C6.72283 18.332 7.63163 19.1729 8.31386 19.7528C8.58367 19.9821 8.81718 20.1699 9 20.3125C9.18282 20.1699 9.41633 19.9821 9.68614 19.7528C10.3684 19.1729 11.2772 18.332 12.184 17.2891C14.0161 15.1822 15.75 12.355 15.75 9.25C15.75 7.45979 15.0388 5.7429 13.773 4.47703C12.5071 3.21116 10.7902 2.5 9 2.5ZM9 21.25C8.5699 21.8644 8.56969 21.8643 8.56945 21.8641L8.56883 21.8637L8.56708 21.8624L8.56154 21.8585L8.54246 21.845C8.52626 21.8334 8.50314 21.8167 8.47356 21.7952C8.41442 21.752 8.32944 21.689 8.2223 21.6071C8.0081 21.4434 7.70492 21.2038 7.34239 20.8957C6.61838 20.2803 5.65217 19.3867 4.68405 18.2734C2.76611 16.0678 0.75 12.895 0.75 9.25C0.75 7.06196 1.61919 4.96354 3.16637 3.41637C4.71354 1.86919 6.81196 1 9 1C11.188 1 13.2865 1.86919 14.8336 3.41637C16.3808 4.96354 17.25 7.06196 17.25 9.25C17.25 12.895 15.2339 16.0678 13.316 18.2734C12.3478 19.3867 11.3816 20.2803 10.6576 20.8957C10.2951 21.2038 9.9919 21.4434 9.7777 21.6071C9.67056 21.689 9.58558 21.752 9.52644 21.7952C9.49686 21.8167 9.47374 21.8334 9.45754 21.845L9.43846 21.8585L9.43292 21.8624L9.43117 21.8637L9.43055 21.8641C9.43031 21.8643 9.4301 21.8644 9 21.25ZM9 21.25L9.4301 21.8644C9.17186 22.0452 8.82814 22.0452 8.5699 21.8644L9 21.25Z" fill="#141414" fill-opacity="0.7"/>
</svg>
